<svg width="225" height="96" viewBox="0 0 225 96" fill="none" xmlns="http://www.w3.org/2000/svg">
<path d="M6.875 54V16.24H10.715V54H6.875ZM16.475 54V16.24H18.395V54H16.475ZM20.315 54V16.24H26.075V54H20.315ZM12.827 59.568H17.179C18.8857 59.568 20.123 59.952 20.891 60.72C21.7017 61.4453 22.107 62.4907 22.107 63.856C22.107 64.7093 21.8297 65.52 21.275 66.288C20.7203 67.056 19.995 67.568 19.099 67.824L22.555 74.416H20.699L17.371 67.888H14.491V74.416H12.827V59.568ZM17.371 66.416C18.395 66.416 19.163 66.1813 19.675 65.712C20.1443 65.2853 20.379 64.6667 20.379 63.856C20.379 63.0453 20.1443 62.384 19.675 61.872C19.163 61.4027 18.395 61.168 17.371 61.168H14.491V66.416H17.371ZM28 54V16.24H29.92V54H28ZM35.68 54V16.24H43.36V54H35.68ZM45.28 54V16.24H47.2V54H45.28ZM38.56 74.608C37.5787 74.608 36.704 74.3733 35.936 73.904C35.2107 73.4347 34.6347 72.7733 34.208 71.92C33.7387 71.0667 33.504 70.0853 33.504 68.976C33.504 67.8667 33.7387 66.8853 34.208 66.032C34.6347 65.1787 35.2107 64.5173 35.936 64.048C36.704 63.536 37.5787 63.28 38.56 63.28C39.5413 63.28 40.3947 63.536 41.12 64.048C41.888 64.5173 42.4853 65.1787 42.912 66.032C43.3387 66.8853 43.552 67.8667 43.552 68.976C43.552 70.0853 43.3387 71.0667 42.912 71.92C42.4853 72.7733 41.888 73.4347 41.12 73.904C40.3947 74.3733 39.5413 74.608 38.56 74.608ZM38.56 73.2C39.1573 73.2 39.712 73.008 40.224 72.624C40.6933 72.2827 41.0773 71.792 41.376 71.152C41.632 70.4693 41.76 69.7227 41.76 68.912C41.76 67.6747 41.4613 66.672 40.864 65.904C40.2667 65.136 39.4987 64.752 38.56 64.752C37.6213 64.752 36.8533 65.136 36.256 65.904C35.6587 66.672 35.36 67.6747 35.36 68.912C35.36 69.7227 35.488 70.4693 35.744 71.152C36.0427 71.792 36.4267 72.2827 36.896 72.624C37.3653 73.008 37.92 73.2 38.56 73.2ZM49.125 54V16.24H51.045V54H49.125ZM58.725 54V16.24H60.645V54H58.725ZM62.565 54V16.24H66.405V54H62.565ZM60.517 74.672C59.4503 74.672 58.5117 74.4373 57.701 73.968C56.8903 73.456 56.2503 72.7733 55.781 71.92C55.3117 71.0667 55.077 70.0853 55.077 68.976C55.077 67.9093 55.3117 66.9493 55.781 66.096C56.2503 65.2427 56.8903 64.56 57.701 64.048C58.5117 63.5787 59.4503 63.344 60.517 63.344C61.3703 63.344 62.1597 63.5147 62.885 63.856C63.5677 64.1973 64.1437 64.688 64.613 65.328L63.525 66.416L63.397 66.544L63.269 66.416C63.269 66.288 63.2263 66.16 63.141 66.032C63.0983 65.9467 62.9917 65.8187 62.821 65.648C62.4797 65.3493 62.117 65.136 61.733 65.008C61.3063 64.8373 60.837 64.752 60.325 64.752C59.685 64.752 59.109 64.9227 58.597 65.264C58.0423 65.6053 57.6157 66.096 57.317 66.736C56.9757 67.3333 56.805 68.0373 56.805 68.848C56.805 69.6587 56.9757 70.4053 57.317 71.088C57.6583 71.728 58.1063 72.2187 58.661 72.56C59.2583 72.944 59.8983 73.136 60.581 73.136C61.6903 73.136 62.6503 72.688 63.461 71.792L64.421 72.944C63.3543 74.096 62.053 74.672 60.517 74.672ZM70.25 54V16.24H74.09V54H70.25ZM81.77 54V16.24H83.69V54H81.77ZM87.53 54V16.24H89.45V54H87.53ZM79.594 68.976L78.186 70.32V74.416H76.458V58.608H78.378V58.736C78.2927 58.864 78.2287 58.9707 78.186 59.056C78.186 59.184 78.186 59.376 78.186 59.632V68.528L83.626 63.472C84.01 63.5573 84.4367 63.6 84.906 63.6H85.482L80.938 67.952L86.25 74.416L84.074 74.48L79.594 68.976ZM91.375 54V16.24H95.215V54H91.375ZM97.135 54V16.24H102.895V54H97.135ZM108.655 54V16.24H110.575V54H108.655ZM100.911 61.04H96.751V59.568H106.991V61.04H102.639V74.416H100.911V61.04ZM112.5 54V16.24H114.42V54H112.5ZM122.1 54V16.24H125.94V54H122.1ZM127.86 54V16.24H129.78V54H127.86ZM119.476 73.008H122.292V64.944H119.604V63.536H123.956V73.008H126.516V74.416H119.476V73.008ZM123.06 61.232C122.719 61.232 122.42 61.1253 122.164 60.912C121.951 60.656 121.844 60.3573 121.844 60.016C121.844 59.6747 121.951 59.3973 122.164 59.184C122.377 58.928 122.676 58.8 123.06 58.8C123.359 58.8 123.636 58.928 123.892 59.184C124.148 59.44 124.276 59.7173 124.276 60.016C124.276 60.3573 124.148 60.656 123.892 60.912C123.636 61.1253 123.359 61.232 123.06 61.232ZM133.625 54V16.24H135.545V54H133.625ZM143.225 54V16.24H145.145V54H143.225ZM147.065 54V16.24H150.905V54H147.065ZM145.017 74.672C143.95 74.672 143.012 74.4373 142.201 73.968C141.39 73.456 140.75 72.7733 140.281 71.92C139.812 71.0667 139.577 70.0853 139.577 68.976C139.577 67.9093 139.812 66.9493 140.281 66.096C140.75 65.2427 141.39 64.56 142.201 64.048C143.012 63.5787 143.95 63.344 145.017 63.344C145.87 63.344 146.66 63.5147 147.385 63.856C148.068 64.1973 148.644 64.688 149.113 65.328L148.025 66.416L147.897 66.544L147.769 66.416C147.769 66.288 147.726 66.16 147.641 66.032C147.598 65.9467 147.492 65.8187 147.321 65.648C146.98 65.3493 146.617 65.136 146.233 65.008C145.806 64.8373 145.337 64.752 144.825 64.752C144.185 64.752 143.609 64.9227 143.097 65.264C142.542 65.6053 142.116 66.096 141.817 66.736C141.476 67.3333 141.305 68.0373 141.305 68.848C141.305 69.6587 141.476 70.4053 141.817 71.088C142.158 71.728 142.606 72.2187 143.161 72.56C143.758 72.944 144.398 73.136 145.081 73.136C146.19 73.136 147.15 72.688 147.961 71.792L148.921 72.944C147.854 74.096 146.553 74.672 145.017 74.672ZM154.75 54V16.24H158.59V54H154.75ZM166.27 54V16.24H168.19V54H166.27ZM172.03 54V16.24H173.95V54H172.03ZM164.094 68.976L162.686 70.32V74.416H160.958V58.608H162.878V58.736C162.793 58.864 162.729 58.9707 162.686 59.056C162.686 59.184 162.686 59.376 162.686 59.632V68.528L168.126 63.472C168.51 63.5573 168.937 63.6 169.406 63.6H169.982L165.438 67.952L170.75 74.416L168.574 74.48L164.094 68.976ZM175.875 54V16.24H177.795V54H175.875ZM179.715 54V16.24H183.555V54H179.715ZM187.395 54V16.24H189.315V54H187.395ZM186.947 74.672C185.326 74.672 184.046 74.1813 183.107 73.2C182.126 72.2187 181.635 70.832 181.635 69.04C181.635 67.8453 181.87 66.8 182.339 65.904C182.766 65.0507 183.363 64.4107 184.131 63.984C184.856 63.5147 185.688 63.28 186.627 63.28C187.95 63.28 189.016 63.7067 189.827 64.56C190.638 65.456 191.043 66.7573 191.043 68.464C191.043 68.6347 191.043 68.8907 191.043 69.232H183.299C183.342 70.5547 183.704 71.5573 184.387 72.24C185.07 72.9227 185.944 73.264 187.011 73.264C188.163 73.264 189.102 72.8587 189.827 72.048L190.787 73.008C189.848 74.1173 188.568 74.672 186.947 74.672ZM189.315 67.888C189.315 66.864 189.059 66.0533 188.547 65.456C188.035 64.8587 187.352 64.56 186.499 64.56C185.731 64.56 185.048 64.8373 184.451 65.392C183.854 65.9467 183.491 66.7787 183.363 67.888H189.315ZM197 54V16.24H198.92V54H197ZM202.76 54V16.24H210.44V54H202.76ZM212.36 54V16.24H214.28V54H212.36ZM212.168 73.392C211.144 74.2027 209.992 74.608 208.712 74.608C207.517 74.608 206.664 74.2453 206.152 73.52C205.64 72.752 205.384 71.5573 205.384 69.936C205.384 69.6373 205.405 69.168 205.448 68.528L205.704 64.944H203.272V63.536H205.768L205.96 60.656L207.816 60.336H208.072V60.464C207.987 60.592 207.923 60.72 207.88 60.848C207.795 60.976 207.752 61.1467 207.752 61.36L207.496 63.536H211.08V64.944H207.368L207.176 68.656C207.133 69.296 207.112 69.7013 207.112 69.872C207.112 71.152 207.261 72.0267 207.56 72.496C207.859 72.9227 208.328 73.136 208.968 73.136C209.437 73.136 209.885 73.0507 210.312 72.88C210.696 72.7093 211.144 72.432 211.656 72.048L212.168 73.392Z" fill="white"/>
</svg>
